PathFileType	4	(X/Y/Z)	Walk4.trc
DataRate	CameraRate	NumFrames	NumMarkers	Units	OrigDataRate	OrigDataStartFrame	OrigNumFrames
200.000000	200.000000	4	58	mm	200.000000	454	662
Frame#	Times		RLFC		RBHD		RMT5		RToe		RTB2		RMT1		LACR1		LElbow		LUA1		LWRR		C7		LCAR		RCAL		RFA1		RCAR		RTH3		LLFC		LTH3		LPSI		LASI		LMMAL		RPSI		LTB2		LCAL		LMT5		RLMAL		RFHD		LTH2		RElbow		RWRR		RMFC		LElbowM		LTB1		LToe		RTH1		RTH4		LTH4		T10		LTH1		RBack		RWRU		LTB3		LTB4		LBHD		LWRU		RTB4		LLMAL		LMT1		RTB3		LMFC		RTB1		RASI		RTH2		LFHD		RACR1		RUA1		RMMAL		RElbowM
			X1	Y1	Z1	X2	Y2	Z2	X3	Y3	Z3	X4	Y4	Z4	X5	Y5	Z5	X6	Y6	Z6	X7	Y7	Z7	X8	Y8	Z8	X9	Y9	Z9	X10	Y10	Z10	X11	Y11	Z11	X12	Y12	Z12	X13	Y13	Z13	X14	Y14	Z14	X15	Y15	Z15	X16	Y16	Z16	X17	Y17	Z17	X18	Y18	Z18	X19	Y19	Z19	X20	Y20	Z20	X21	Y21	Z21	X22	Y22	Z22	X23	Y23	Z23	X24	Y24	Z24	X25	Y25	Z25	X26	Y26	Z26	X27	Y27	Z27	X28	Y28	Z28	X29	Y29	Z29	X30	Y30	Z30	X31	Y31	Z31	X32	Y32	Z32	X33	Y33	Z33	X34	Y34	Z34	X35	Y35	Z35	X36	Y36	Z36	X37	Y37	Z37	X38	Y38	Z38	X39	Y39	Z39	X40	Y40	Z40	X41	Y41	Z41	X42	Y42	Z42	X43	Y43	Z43	X44	Y44	Z44	X45	Y45	Z45	X46	Y46	Z46	X47	Y47	Z47	X48	Y48	Z48	X49	Y49	Z49	X50	Y50	Z50	X51	Y51	Z51	X52	Y52	Z52	X53	Y53	Z53	X54	Y54	Z54	X55	Y55	Z55	X56	Y56	Z56	X57	Y57	Z57	X58	Y58	Z58

454	2.27	-20.114	519.49	121.74	-192.43	1585.2	-55.197	164.58	24.852	114.84	253.42	54.922	86.444	51.199	292.47	109.91	208.81	41.406	45.526	-136.4	1398.1	-165.49	-167.08	1061.4	-300.25	-145.42	1198.8	-252.33	-15.467	824.32	-268.02	-224.66	1452.2	7.7227	-105.17	932.62	-293.08	2.7648	30.816	15.529	-219.54	893.64	273.22	-142.37	749.73	263.42	-36.102	561.79	124.78	-267.7	492.81	-135.86	-234.75	552.73	-146.63	-308.84	1010.3	-38.261	-120.05	1014.9	-169.04	-487.82	95.895	-33.656	-306.69	1010.5	30.678	-338.7	282.17	-126.42	-579.08	90.149	-72.141	-412.2	25.28	-138.5	48.174	63.448	81.898	-16.625	1624.3	-22.574	-159.56	638.52	-115.85	-237.75	1054.1	274.21	-135.41	795.58	214.03	-28.338	482.45	-3.6566	-210.49	1039.7	-229.06	-287.45	356.83	-52.901	-322.03	27.457	-77.545	-104.16	735.41	163.57	-66.516	648.68	146.51	-215.19	644.21	-162.95	-296.22	1195.6	3.6479	-197.44	733.26	-180.54	-240.47	1336.2	155.8	-211.26	772.89	243.41	-395.39	206.51	-57.693	-341.98	282.17	-53.939	-191.65	1573.4	81.224	56.584	842.14	-254.01	66.559	295.66	36.859	-507.99	96.486	-117.64	-374.56	28.16	-58.559	74.488	207.1	35.705	-297.22	480.55	-14.335	55.7	392.4	41.988	-107.07	960.2	136.67	-9.0532	677.53	107.82	-16.64	1619.5	52.217	-110.15	1391.1	159.57	-155.2	1210.7	238.79	82.326	74.67	7.095	-273.12	1061.6	197.59
455	2.275	-14.086	520.32	122.31	-186.83	1585.5	-53.789	165.21	23.971	115.13	254.52	52.682	85.914	54.844	292.46	110.28	209.34	39.874	45.168	-130.68	1398.7	-164.26	-162.84	1062.1	-299.17	-140.5	1199.4	-251.23	-12.604	824.05	-267.45	-218.85	1452.6	9.0516	-101.7	932.93	-292.22	2.9688	31.258	15.868	-213.19	893.46	273.88	-136.32	749.38	264.16	-29.962	562.81	125.48	-259.29	492.42	-135.3	-226.38	552.16	-145.93	-302.99	1010.7	-37.885	-113.87	1015.5	-168.08	-485.16	99.209	-33.968	-300.87	1011.1	31.138	-333.1	282.98	-126.43	-576.44	95.675	-72.287	-411.79	26.132	-138.2	48.877	63.528	82.045	-11.033	1624.8	-21.26	-151.88	638.4	-114.94	-231.15	1053.9	274.8	-129.22	795.21	214.79	-23.054	483.33	-2.9717	-206.22	1040.6	-227.9	-280.53	356.51	-52.765	-322.3	27.27	-77.199	-97.821	736.51	164.06	-60.285	649.69	147	-207.51	643.79	-162.11	-290.44	1195.9	4.5421	-190.49	732.98	-179.6	-234.46	1336.2	156.99	-205.15	772.67	244.07	-391.05	208.17	-57.806	-336.32	282.89	-53.913	-185.94	1573.7	82.634	59.558	841.41	-253.48	69.818	295.52	37.128	-505.43	100.19	-117.9	-374.46	28.059	-58.607	76.747	206.89	35.894	-288.95	479.9	-14.202	60.119	392.39	42.322	-101.23	960.85	137.19	-3.0183	678.42	108.03	-10.993	1619.9	53.529	-104.27	1391.4	160.71	-148.88	1210.7	239.63	82.843	74.468	7.1326	-266.64	1061.5	198.21
456	2.28	-8.1906	521.14	122.87	-181.23	1586	-52.386	165.75	23.3	115.41	255.51	50.645	85.402	58.34	292.46	110.62	209.77	38.522	44.799	-124.94	1399.2	-163.03	-158.64	1062.9	-298.08	-135.58	1200	-250.12	-9.9146	823.79	-266.9	-213.05	1453	10.36	-98.352	933.31	-291.34	3.133	31.633	16.185	-206.79	893.36	274.55	-130.24	749.11	264.92	-23.936	563.84	126.2	-250.49	492.01	-134.77	-217.66	551.58	-145.23	-297.18	1011	-37.513	-107.71	1016.1	-167.1	-482.21	102.71	-34.335	-295.09	1011.8	31.591	-327.18	283.89	-126.49	-573.45	101.51	-72.48	-411.25	27.118	-137.9	49.447	63.656	82.154	-5.4337	1625.3	-19.946	-143.96	638.33	-113.98	-224.52	1053.8	275.41	-122.99	794.94	215.56	-17.863	484.25	-2.3341	-201.99	1041.6	-226.7	-273.24	356.22	-52.677	-322.61	27.134	-76.825	-91.519	737.63	164.61	-54.13	650.69	147.53	-199.56	643.37	-161.26	-284.69	1196.2	5.4119	-183.36	732.73	-178.61	-228.47	1336.3	158.17	-198.99	772.53	244.74	-386.39	209.95	-57.968	-330.31	283.68	-53.939	-180.24	1574.1	84.036	62.367	840.65	-252.99	72.949	295.41	37.377	-502.57	104.1	-118.21	-374.38	27.969	-58.64	78.879	206.72	36.057	-280.24	479.18	-14.056	64.405	392.4	42.633	-95.437	961.63	137.74	2.9419	679.29	108.28	-5.3413	1620.3	54.84	-98.387	1391.7	161.82	-142.54	1210.7	240.44	83.234	74.32	7.1452	-260.14	1061.6	198.84
457	2.285	-2.4637	521.91	123.4	-175.64	1586.5	-50.994	166.22	22.809	115.68	256.41	48.788	84.903	61.688	292.48	110.93	210.12	37.332	44.416	-119.21	1399.9	-161.8	-154.48	1063.8	-296.96	-130.66	1200.8	-248.99	-7.3923	823.56	-266.38	-207.27	1453.5	11.646	-95.112	933.76	-290.46	3.2639	31.946	16.476	-200.34	893.35	275.24	-124.1	748.93	265.69	-18.062	564.83	126.9	-241.34	491.59	-134.29	-208.62	551	-144.53	-291.41	1011.4	-37.139	-101.59	1016.8	-166.12	-478.95	106.39	-34.762	-289.34	1012.5	32.045	-320.93	284.89	-126.6	-570.08	107.64	-72.727	-410.56	28.245	-137.62	49.905	63.821	82.222	0.16967	1625.8	-18.633	-135.81	638.31	-112.98	-217.85	1053.8	276.02	-116.71	794.75	216.35	-12.791	485.18	-1.7512	-197.8	1042.7	-225.47	-265.6	355.96	-52.638	-322.95	27.069	-76.423	-85.295	738.73	165.21	-48.089	651.67	148.11	-191.37	642.97	-160.4	-278.97	1196.6	6.2605	-176.06	732.49	-177.59	-222.49	1336.5	159.34	-192.78	772.47	245.42	-381.4	211.86	-58.181	-323.95	284.55	-54.017	-174.55	1574.5	85.425	65.014	839.86	-252.52	75.953	295.31	37.599	-499.39	108.22	-118.57	-374.31	27.903	-58.653	80.893	206.57	36.187	-271.09	478.39	-13.886	68.551	392.41	42.913	-89.694	962.52	138.33	8.8084	680.12	108.58	0.31348	1620.8	56.149	-92.526	1392	162.89	-136.18	1210.8	241.24	83.519	74.212	7.1307	-253.64	1061.7	199.48
